<?xml version="1.0" encoding="utf-8"?>
<!-- Generator: Adobe Illustrator 21.0.0, SVG Export Plug-In . SVG Version: 6.00 Build 0)  -->
<svg version="1.1" id="Слой_1" xmlns="http://www.w3.org/2000/svg" xmlns:xlink="http://www.w3.org/1999/xlink" x="0px" y="0px"
	 viewBox="0 0 289.8 226.6" style="enable-background:new 0 0 289.8 226.6;" xml:space="preserve">
<style type="text/css">
	.st0{opacity:0.1;}
</style>
<title>no-image</title>
<g id="Слой_2" class="st0">
	<g id="Слой_1-2">
		<polygon points="157.2,140.8 157.4,140.5 157.2,140.4 		"/>
		<polygon points="257.4,36.3 257.4,181.5 282.9,200.9 282.9,10.7 33.5,10.7 66.9,36.3 		"/>
		<path d="M157.2,140.8v-0.4l-11.4-8.7v32.4h16.1c6.8,0,13.4-1.9,19.1-5.6l-23.6-18L157.2,140.8z"/>
		<polygon points="45.6,183.6 45.6,55.3 20.1,35.8 20.1,209.2 247.4,209.2 214,183.6 		"/>
		<path d="M105.5,128.4c0,17.3,12.5,32.1,29.5,35.1V130l-28.2-28l-1.4-1.1L105.5,128.4z"/>
		<path d="M179,55.8l-14.9,16.3l-12.8-16.3l-12,16.3L124,55.8c-3.2,6.2-4.9,13.2-4.9,20.2l43.2,33C187,100.8,187.4,71.5,179,55.8z"
			/>
		<path d="M197.5,128.4v-27.9l-20,19.9l19.4,14.8C197.3,133,197.5,130.7,197.5,128.4z"/>
		<polygon points="282.9,207.7 251.3,183.6 195.3,140.9 173.6,124.4 157.2,111.9 119.6,83.2 58,36.3 24.5,10.7 10.4,0 0,13.7 
			20.1,29 45.6,48.5 145.8,124.9 157.2,133.5 161.3,136.7 185.5,155.1 222.9,183.6 256.4,209.2 279.3,226.6 289.8,212.9 		"/>
	</g>
</g>
</svg>
