<svg width="57" height="83" viewBox="0 0 57 83" fill="none" xmlns="http://www.w3.org/2000/svg">
<g filter="url(#filter0_d)">
<path d="M28.25 5C20.9436 5 15 10.9436 15 18.25C15 25.1838 20.3553 30.8799 27.1458 31.4441V56.8959C27.1458 57.5062 27.6397 58.0001 28.25 58.0001C28.8603 58.0001 29.3542 57.5062 29.3542 56.8959V31.4441C36.1447 30.8799 41.5 25.1838 41.5 18.25C41.5 10.9436 35.5564 5 28.25 5ZM28.25 11.625C24.5967 11.625 21.625 14.5967 21.625 18.25C21.625 18.8603 21.1311 19.3542 20.5208 19.3542C19.9105 19.3542 19.4166 18.8603 19.4166 18.25C19.4166 13.3794 23.3793 9.4167 28.2499 9.4167C28.8602 9.4167 29.3541 9.91057 29.3541 10.5209C29.3542 11.1311 28.8603 11.625 28.25 11.625Z" fill="#D26C6C"/>
</g>
<defs>
<filter id="filter0_d" x="0" y="0" width="56.5" height="83.0001" filterUnits="userSpaceOnUse" color-interpolation-filters="sRGB">
<feFlood flood-opacity="0" result="BackgroundImageFix"/>
<feColorMatrix in="SourceAlpha" type="matrix" values="0 0 0 0 0 0 0 0 0 0 0 0 0 0 0 0 0 0 127 0"/>
<feOffset dy="10"/>
<feGaussianBlur stdDeviation="7.5"/>
<feColorMatrix type="matrix" values="0 0 0 0 0 0 0 0 0 0 0 0 0 0 0 0 0 0 0.1 0"/>
<feBlend mode="normal" in2="BackgroundImageFix" result="effect1_dropShadow"/>
<feBlend mode="normal" in="SourceGraphic" in2="effect1_dropShadow" result="shape"/>
</filter>
</defs>
</svg>
